<?xml version="1.0" encoding="UTF-8"?>
<svg id="Layer_2" data-name="Layer 2" xmlns="http://www.w3.org/2000/svg" viewBox="0 0 46.6 43.95">
  <defs>
    <style>
      .cls-1 {
        fill: none;
        stroke: #fff;
        stroke-miterlimit: 10;
      }
    </style>
  </defs>
  <g id="Layer_1-2" data-name="Layer 1">
    <path class="cls-1" d="m40.05.5H3.1C1.53.5.4,1.71.51,3.28l2.61,36.97c.12,1.73,1.7,3.2,3.43,3.2h36.95c1.57,0,2.7-1.21,2.59-2.78l-2.61-36.97c-.12-1.73-1.7-3.2-3.43-3.2Zm-3.09,30.12c.18,2.53-1.67,4.51-4.2,4.51h-8.3l-.42-7h5.72l-.87-12.31h-12.3l.32,4.47,3.15.22-5.87,10.99-7.49-11.92,3.15.22-.46-6.47c-.18-2.53,1.67-4.51,4.2-4.51h16.62c1.34,0,2.71.56,3.76,1.54s1.71,2.31,1.8,3.64l1.17,16.62Z"/>
  </g>
</svg>