<?xml version="1.0" encoding="UTF-8"?>
<svg id="Layer_2" data-name="Layer 2" xmlns="http://www.w3.org/2000/svg" viewBox="0 0 45.6 42.95">
  <defs>
    <style>
      .cls-1 {
        fill: #fff;
      }
    </style>
  </defs>
  <g id="Layer_1-2" data-name="Layer 1">
    <path class="cls-1" d="m39.55,0H2.6C1.03,0-.1,1.21,0,2.78l2.61,36.97c.12,1.73,1.7,3.2,3.43,3.2h36.95c1.57,0,2.7-1.21,2.59-2.78l-2.61-36.97c-.12-1.73-1.7-3.2-3.43-3.2Zm-22.43,33.03c.06.78-.51,1.39-1.3,1.39h-1.55c-.87,0-1.66-.74-1.72-1.6l-1.62-22.9c-.06-.78.51-1.39,1.3-1.39h1.55c.87,0,1.66.74,1.72,1.6l1.62,22.9Zm20.04-10.02l-13.45,11.25c-1.25,1.04-3.37-.03-3.49-1.77l-1.59-22.51c-.12-1.65,1.71-2.48,3.13-1.42l15.04,11.25c1.12.84,1.3,2.4.36,3.18Z"/>
  </g>
</svg>