<?xml version="1.0" encoding="UTF-8"?>
<svg id="Layer_2" data-name="Layer 2" xmlns="http://www.w3.org/2000/svg" viewBox="0 0 46.52 43.95">
  <defs>
    <style>
      .cls-1 {
        fill: none;
        stroke: #fff;
        stroke-miterlimit: 10;
      }
    </style>
  </defs>
  <g id="Layer_1-2" data-name="Layer 1">
    <path class="cls-1" d="m43.03.5H6.07c-1.57,0-2.87,1.21-2.98,2.78L.51,40.25c-.12,1.73,1.25,3.2,2.98,3.2h36.95c1.57,0,2.87-1.21,2.98-2.78l2.58-36.97c.12-1.73-1.25-3.2-2.98-3.2ZM15.95,33.53c-.05.78-.71,1.39-1.49,1.39h-1.55c-.87,0-1.55-.74-1.49-1.6l1.6-22.9c.05-.78.71-1.39,1.49-1.39h1.55c.87,0,1.55.74,1.49,1.6l-1.6,22.9Zm21.45-10.02l-15.03,11.25c-1.39,1.04-3.37-.03-3.24-1.77l1.57-22.51c.12-1.65,2.06-2.48,3.33-1.42l13.46,11.25c1.01.84.96,2.4-.09,3.18Z"/>
  </g>
</svg>