<?xml version="1.0" encoding="UTF-8"?>
<svg id="Layer_2" data-name="Layer 2" xmlns="http://www.w3.org/2000/svg" viewBox="0 0 45.52 42.95">
  <defs>
    <style>
      .cls-1 {
        fill: #fff;
      }
    </style>
  </defs>
  <g id="Layer_1-2" data-name="Layer 1">
    <path class="cls-1" d="m42.53,0H5.57c-1.57,0-2.87,1.21-2.98,2.78L0,39.75c-.12,1.73,1.25,3.2,2.98,3.2h36.95c1.57,0,2.87-1.21,2.98-2.78l2.58-36.97c.12-1.73-1.25-3.2-2.98-3.2Zm-7.32,30.12c-.18,2.53-2.3,4.51-4.83,4.51h-8.3l.57-7h5.72l.86-12.31h-12.3l-.31,4.47,3.12.22-7.42,10.99-5.81-11.92,3.12.22.45-6.47c.18-2.53,2.3-4.51,4.83-4.51h16.62c1.34,0,2.63.56,3.54,1.54s1.38,2.31,1.29,3.64l-1.16,16.62Z"/>
  </g>
</svg>